<svg width="563" height="271" viewBox="0 0 563 271" fill="none" xmlns="http://www.w3.org/2000/svg">
<path d="M24.952 32.55C27.92 32.55 30.1813 31.8787 31.736 30.536C33.3613 29.1227 34.174 27.0027 34.174 24.176C34.174 21.4907 33.326 19.4413 31.63 18.028C30.0047 16.544 27.602 15.802 24.422 15.802C23.2913 15.802 22.3373 15.8373 21.56 15.908C20.8533 15.908 20.1113 15.9787 19.334 16.12V32.55H24.952ZM19.44 66.576C18.6627 66.788 17.426 67 15.73 67.212C14.1047 67.424 12.4793 67.53 10.854 67.53C9.22867 67.53 7.78 67.3887 6.508 67.106C5.30667 66.894 4.282 66.47 3.434 65.834C2.586 65.198 1.95 64.3147 1.526 63.184C1.102 62.0533 0.890001 60.5693 0.890001 58.732V8.806C0.890001 7.322 1.27867 6.19133 2.056 5.414C2.904 4.566 4.03467 3.89466 5.448 3.4C7.85067 2.552 10.5713 1.95133 13.61 1.598C16.7193 1.174 19.8287 0.961997 22.938 0.961997C32.69 0.961997 40.1453 3.04666 45.304 7.216C50.4627 11.3853 53.042 17.0387 53.042 24.176C53.042 27.6387 52.4767 30.7833 51.346 33.61C50.286 36.366 48.6607 38.7687 46.47 40.818C44.35 42.7967 41.6293 44.3513 38.308 45.482C35.0573 46.542 31.2767 47.072 26.966 47.072H19.44V66.576ZM81.0318 66.576C80.2545 66.788 79.0178 67 77.3218 67.212C75.6965 67.424 74.0711 67.53 72.4458 67.53C70.8205 67.53 69.3718 67.3887 68.0998 67.106C66.8985 66.894 65.8738 66.47 65.0258 65.834C64.1778 65.198 63.5418 64.3147 63.1178 63.184C62.6938 62.0533 62.4818 60.5693 62.4818 58.732V2.764C63.2591 2.62266 64.4958 2.446 66.1918 2.234C67.8878 1.95133 69.5131 1.81 71.0678 1.81C72.6931 1.81 74.1065 1.95133 75.3078 2.234C76.5798 2.446 77.6398 2.87 78.4878 3.506C79.3358 4.142 79.9718 5.02533 80.3958 6.156C80.8198 7.28666 81.0318 8.77066 81.0318 10.608V66.576ZM120.537 17.604H94.4607C93.966 16.8267 93.5067 15.7667 93.0827 14.424C92.6587 13.0813 92.4467 11.668 92.4467 10.184C92.4467 7.428 93.0473 5.44933 94.2487 4.248C95.5207 3.04666 97.146 2.446 99.1247 2.446H138.663C141.772 4.99 143.327 8.382 143.327 12.622C143.327 14.3887 142.903 16.1553 142.055 17.922C141.277 19.618 140.253 21.2433 138.981 22.798L114.919 51.842H142.055C142.549 52.6193 143.009 53.6793 143.433 55.022C143.857 56.3647 144.069 57.778 144.069 59.262C144.069 62.018 143.433 63.9967 142.161 65.198C140.959 66.3993 139.369 67 137.391 67H95.6267C94.4253 66.0107 93.436 64.668 92.6587 62.972C91.8813 61.276 91.4927 59.3327 91.4927 57.142C91.4927 55.3753 91.952 53.5733 92.8707 51.736C93.7893 49.8987 94.8847 48.2027 96.1567 46.648L120.537 17.604ZM180.369 17.604H154.293C153.798 16.8267 153.339 15.7667 152.915 14.424C152.491 13.0813 152.279 11.668 152.279 10.184C152.279 7.428 152.879 5.44933 154.081 4.248C155.353 3.04666 156.978 2.446 158.957 2.446H198.495C201.604 4.99 203.159 8.382 203.159 12.622C203.159 14.3887 202.735 16.1553 201.887 17.922C201.109 19.618 200.085 21.2433 198.813 22.798L174.751 51.842H201.887C202.381 52.6193 202.841 53.6793 203.265 55.022C203.689 56.3647 203.901 57.778 203.901 59.262C203.901 62.018 203.265 63.9967 201.993 65.198C200.791 66.3993 199.201 67 197.223 67H155.459C154.257 66.0107 153.268 64.668 152.491 62.972C151.713 61.276 151.325 59.3327 151.325 57.142C151.325 55.3753 151.784 53.5733 152.703 51.736C153.621 49.8987 154.717 48.2027 155.989 46.648L180.369 17.604ZM228.117 4.672C229.318 3.96533 231.12 3.29399 233.523 2.65799C235.996 2.02199 238.469 1.70399 240.943 1.70399C244.476 1.70399 247.585 2.234 250.271 3.294C253.027 4.28333 254.793 5.87333 255.571 8.06399C256.843 11.7387 258.221 16.014 259.705 20.89C261.189 25.766 262.673 30.8187 264.157 36.048C265.641 41.2067 267.089 46.33 268.503 51.418C269.916 56.4353 271.153 60.8873 272.213 64.774C271.365 65.7633 270.093 66.5407 268.397 67.106C266.701 67.742 264.687 68.06 262.355 68.06C260.659 68.06 259.21 67.9187 258.009 67.636C256.878 67.3533 255.924 66.9293 255.147 66.364C254.44 65.7987 253.839 65.0567 253.345 64.138C252.921 63.2193 252.532 62.1593 252.179 60.958L250.271 53.644H231.085C230.519 55.764 229.954 57.9547 229.389 60.216C228.823 62.4773 228.258 64.668 227.693 66.788C226.703 67.1413 225.643 67.424 224.513 67.636C223.453 67.9187 222.145 68.06 220.591 68.06C216.987 68.06 214.301 67.4593 212.535 66.258C210.839 64.986 209.991 63.2547 209.991 61.064C209.991 60.0747 210.132 59.0853 210.415 58.096C210.697 57.1067 211.015 55.9407 211.369 54.598C211.863 52.69 212.535 50.3227 213.383 47.496C214.301 44.6693 215.291 41.6307 216.351 38.38C217.411 35.0587 218.541 31.6667 219.743 28.204C220.944 24.7413 222.075 21.4907 223.135 18.452C224.195 15.3427 225.149 12.5867 225.997 10.184C226.915 7.78133 227.622 5.944 228.117 4.672ZM240.837 18.346C239.847 21.314 238.717 24.6353 237.445 28.31C236.243 31.914 235.148 35.5887 234.159 39.334H247.303C246.313 35.518 245.289 31.808 244.229 28.204C243.239 24.5293 242.321 21.2433 241.473 18.346H240.837Z" fill="#D04A31"/>
<path d="M314.952 234.55C317.92 234.55 320.181 233.879 321.736 232.536C323.361 231.123 324.174 229.003 324.174 226.176C324.174 223.491 323.326 221.441 321.63 220.028C320.005 218.544 317.602 217.802 314.422 217.802C313.291 217.802 312.337 217.837 311.56 217.908C310.853 217.908 310.111 217.979 309.334 218.12V234.55H314.952ZM309.44 268.576C308.663 268.788 307.426 269 305.73 269.212C304.105 269.424 302.479 269.53 300.854 269.53C299.229 269.53 297.78 269.389 296.508 269.106C295.307 268.894 294.282 268.47 293.434 267.834C292.586 267.198 291.95 266.315 291.526 265.184C291.102 264.053 290.89 262.569 290.89 260.732V210.806C290.89 209.322 291.279 208.191 292.056 207.414C292.904 206.566 294.035 205.895 295.448 205.4C297.851 204.552 300.571 203.951 303.61 203.598C306.719 203.174 309.829 202.962 312.938 202.962C322.69 202.962 330.145 205.047 335.304 209.216C340.463 213.385 343.042 219.039 343.042 226.176C343.042 229.639 342.477 232.783 341.346 235.61C340.286 238.366 338.661 240.769 336.47 242.818C334.35 244.797 331.629 246.351 328.308 247.482C325.057 248.542 321.277 249.072 316.966 249.072H309.44V268.576ZM371.032 268.576C370.254 268.788 369.018 269 367.322 269.212C365.696 269.424 364.071 269.53 362.446 269.53C360.82 269.53 359.372 269.389 358.1 269.106C356.898 268.894 355.874 268.47 355.026 267.834C354.178 267.198 353.542 266.315 353.118 265.184C352.694 264.053 352.482 262.569 352.482 260.732V204.764C353.259 204.623 354.496 204.446 356.192 204.234C357.888 203.951 359.513 203.81 361.068 203.81C362.693 203.81 364.106 203.951 365.308 204.234C366.58 204.446 367.64 204.87 368.488 205.506C369.336 206.142 369.972 207.025 370.396 208.156C370.82 209.287 371.032 210.771 371.032 212.608V268.576ZM410.537 219.604H384.461C383.966 218.827 383.507 217.767 383.083 216.424C382.659 215.081 382.447 213.668 382.447 212.184C382.447 209.428 383.047 207.449 384.249 206.248C385.521 205.047 387.146 204.446 389.125 204.446H428.663C431.772 206.99 433.327 210.382 433.327 214.622C433.327 216.389 432.903 218.155 432.055 219.922C431.277 221.618 430.253 223.243 428.981 224.798L404.919 253.842H432.055C432.549 254.619 433.009 255.679 433.433 257.022C433.857 258.365 434.069 259.778 434.069 261.262C434.069 264.018 433.433 265.997 432.161 267.198C430.959 268.399 429.369 269 427.391 269H385.627C384.425 268.011 383.436 266.668 382.659 264.972C381.881 263.276 381.493 261.333 381.493 259.142C381.493 257.375 381.952 255.573 382.871 253.736C383.789 251.899 384.885 250.203 386.157 248.648L410.537 219.604ZM470.369 219.604H444.293C443.798 218.827 443.339 217.767 442.915 216.424C442.491 215.081 442.279 213.668 442.279 212.184C442.279 209.428 442.879 207.449 444.081 206.248C445.353 205.047 446.978 204.446 448.957 204.446H488.495C491.604 206.99 493.159 210.382 493.159 214.622C493.159 216.389 492.735 218.155 491.887 219.922C491.109 221.618 490.085 223.243 488.813 224.798L464.751 253.842H491.887C492.381 254.619 492.841 255.679 493.265 257.022C493.689 258.365 493.901 259.778 493.901 261.262C493.901 264.018 493.265 265.997 491.993 267.198C490.791 268.399 489.201 269 487.223 269H445.459C444.257 268.011 443.268 266.668 442.491 264.972C441.713 263.276 441.325 261.333 441.325 259.142C441.325 257.375 441.784 255.573 442.703 253.736C443.621 251.899 444.717 250.203 445.989 248.648L470.369 219.604ZM518.117 206.672C519.318 205.965 521.12 205.294 523.523 204.658C525.996 204.022 528.469 203.704 530.943 203.704C534.476 203.704 537.585 204.234 540.271 205.294C543.027 206.283 544.793 207.873 545.571 210.064C546.843 213.739 548.221 218.014 549.705 222.89C551.189 227.766 552.673 232.819 554.157 238.048C555.641 243.207 557.089 248.33 558.503 253.418C559.916 258.435 561.153 262.887 562.213 266.774C561.365 267.763 560.093 268.541 558.397 269.106C556.701 269.742 554.687 270.06 552.355 270.06C550.659 270.06 549.21 269.919 548.009 269.636C546.878 269.353 545.924 268.929 545.147 268.364C544.44 267.799 543.839 267.057 543.345 266.138C542.921 265.219 542.532 264.159 542.179 262.958L540.271 255.644H521.085C520.519 257.764 519.954 259.955 519.389 262.216C518.823 264.477 518.258 266.668 517.693 268.788C516.703 269.141 515.643 269.424 514.513 269.636C513.453 269.919 512.145 270.06 510.591 270.06C506.987 270.06 504.301 269.459 502.535 268.258C500.839 266.986 499.991 265.255 499.991 263.064C499.991 262.075 500.132 261.085 500.415 260.096C500.697 259.107 501.015 257.941 501.369 256.598C501.863 254.69 502.535 252.323 503.383 249.496C504.301 246.669 505.291 243.631 506.351 240.38C507.411 237.059 508.541 233.667 509.743 230.204C510.944 226.741 512.075 223.491 513.135 220.452C514.195 217.343 515.149 214.587 515.997 212.184C516.915 209.781 517.622 207.944 518.117 206.672ZM530.837 220.346C529.847 223.314 528.717 226.635 527.445 230.31C526.243 233.914 525.148 237.589 524.159 241.334H537.303C536.313 237.518 535.289 233.808 534.229 230.204C533.239 226.529 532.321 223.243 531.473 220.346H530.837Z" fill="#D04A31"/>
<path d="M92 136.461V128.126L96.659 125L104.942 127.605L111.671 131.251C114.777 131.946 121.093 133.335 121.507 133.335C121.921 133.335 125.476 134.377 127.201 134.898H132.896L139.108 132.293C140.661 132.641 143.87 133.335 144.284 133.335C144.698 133.335 148.943 135.766 151.014 136.982L158.779 140.629L164.473 142.713L169.132 145.838L170.167 152.09V159.383C170.167 159.8 169.477 164.072 169.132 166.156L169.65 177.096L170.306 183.366L183.019 187.098L182.591 183.868L184.144 175.012L189.839 169.281L200.192 165.635L207.439 161.988H218.31L223.487 164.593L228.146 170.323L232.805 172.407L238.499 171.365L244.711 169.281L254.029 167.719L264.382 168.76L268.006 177.096L272.665 179.18L284.571 174.491L293.889 176.054L296.995 181.263V189.078L297.513 195.329V202.623V207.631L308.384 208.874L314.156 209.121L312.525 198.455L311.49 185.952V180.222L315.631 174.491L323.396 176.054L333.232 180.222L341.515 181.263L345.656 179.18L353.939 183.347H362.221L369.986 181.263H379.304L389.14 183.347H394.834L404.152 185.952L412.952 189.599L418.647 194.287L429 205.228L419.682 207.311L399.493 208.874L381.375 210.958H357.045L314.156 209.121L308.384 208.874L297.513 207.631L262.829 203.665L198.639 191.683L183.019 187.098L170.306 183.366L148.943 177.096L110.118 160.946L102.353 155.737L95.6237 146.359L92 136.461Z" fill="#F3AE73"/>
<path d="M314.596 212L312.525 198.455L311.49 185.952V180.222L315.631 174.491L323.396 176.054L333.232 180.222L341.515 181.263L345.656 179.18L353.939 183.347H362.221L369.986 181.263H379.304L389.14 183.347H394.834L404.152 185.952L412.952 189.599L418.647 194.287L429 205.228L419.682 207.311L399.493 208.874L381.375 210.958H357.045L308.384 208.874L262.829 203.665L198.639 191.683L148.943 177.096L110.118 160.946L102.353 155.737L95.6237 146.359L92 136.461V128.126L96.659 125L104.942 127.605L111.671 131.251C114.777 131.946 121.093 133.335 121.507 133.335C121.921 133.335 125.476 134.377 127.201 134.898H132.896L139.108 132.293C140.661 132.641 143.87 133.335 144.284 133.335C144.698 133.335 148.943 135.766 151.014 136.982L158.779 140.629L164.473 142.713L169.132 145.838L170.167 152.09C170.167 154.347 170.167 158.966 170.167 159.383C170.167 159.8 169.477 164.072 169.132 166.156L169.65 177.096L170.685 186.994M183.627 191.683L182.591 183.868L184.144 175.012L189.839 169.281L200.192 165.635L207.439 161.988H218.31L223.487 164.593L228.146 170.323L232.805 172.407L238.499 171.365L244.711 169.281L254.029 167.719L264.382 168.76L268.006 177.096L272.665 179.18L284.571 174.491L293.889 176.054L296.995 181.263V189.078L297.513 195.329V202.623V208.874" stroke="black"/>
<path d="M348.663 47.8151C348.663 47.8151 101.426 102.086 91.5778 125.862M348.663 47.8151C364.731 55.0512 398.422 181.684 385.464 181.684M348.663 47.8151C348.663 47.8151 373.024 26.1066 385.464 55.0512C397.904 83.9959 446.107 215.798 427.966 204.426M91.5778 125.862C91.5778 125.862 87.4171 135.325 101.426 153.773C115.435 172.221 290.612 228.202 427.966 204.426M91.5778 125.862C91.5778 125.862 103.483 125.282 107.128 128.447C110.772 131.611 127.342 137.75 134.598 133.615C141.855 129.48 145.263 134.069 155.331 138.784C155.331 138.784 166.734 142.919 169.326 145.503C171.917 148.088 164.661 207.528 177.619 198.224C190.577 188.92 172.463 173.414 194.75 166.178C217.038 158.942 215.423 160.493 222.161 162.043C228.9 163.594 220.061 178.066 247.014 168.762C273.966 159.459 263.081 181.622 270.338 178.521C277.594 175.42 288.419 172.319 294.639 175.937C300.859 179.555 291.13 222 308.235 222C325.339 222 296.832 161.981 322.748 174.903C348.663 187.825 339.274 177.942 345.553 178.521C351.833 179.1 351.773 184.785 364.731 181.684C377.689 178.583 385.464 181.684 385.464 181.684M385.464 181.684C406.556 183.767 416.045 186.853 427.966 204.426" stroke="black" stroke-width="5"/>
<path d="M102.299 126.949L93 125.391L94.5499 122.275L114.699 111.887L148.28 99.4209L228.876 77.0866L328.587 51.6358L349.252 48L355.968 54.7522L364.751 77.0866L375.084 107.731L381.284 134.221L385.933 156.555L388 174.215L385.933 180.967H382.317H374.051L365.268 182.006H359.068L353.385 183.045L349.252 179.928L343.569 178.89L342.019 180.967L337.37 182.006L329.103 178.89L322.387 175.254L314.637 173.636L311.021 179.928V190.836L313.088 206.418L314.637 216.287L311.021 222H304.821L299.655 216.287L297.072 205.379V196.03L296.039 186.161L297.072 178.89L292.939 176.293L283.123 175.254L276.406 176.293L268.14 178.89L266.59 174.215L265.04 169.54L261.424 167.982L256.774 166.943L246.958 169.54L235.592 172.137L227.326 170.579L224.226 164.346L219.06 161.749H211.827L204.077 164.346L192.711 166.943L185.995 172.137L182.895 177.331V184.084V190.836L179.795 197.069L175.662 200.185L172.562 197.069L170.496 189.797L168.946 176.293L170.496 153.439L168.946 145.128L159.13 140.973L149.313 136.299L138.981 131.624L130.715 134.74H122.448L112.632 131.624L102.299 126.949Z" fill="#FED24D" stroke="black"/>
<path d="M353.696 44.6108L349 47.7057L354.739 54.4114L358.913 61.6329L362.043 68.8544L364.652 77.1076L367.261 86.3924L373 96.193L374.565 107.025L377.174 114.247L379.783 124.563C381.174 130.409 383.957 142.308 383.957 143.133C383.957 143.958 385.696 150.011 386.565 152.934V160.155L389.696 168.924L388.652 175.114L388.13 181.304L395.435 183.367L402.217 185.946L409.522 188.525L416.304 192.652L423.087 197.81L428.304 202.968L431.435 204L433 194.199L430.913 183.367L426.739 172.535L423.087 158.608L417.87 144.68L414.217 130.237L410.043 117.342L405.348 105.478L400.652 92.0665L394.913 79.6867L390.739 67.307L385.522 54.4114L377.696 44.6108L371.435 41H363.087L353.696 44.6108Z" fill="#F3AE73" stroke="black"/>
<path d="M350.522 47.8151C350.522 47.8151 102.865 102.086 93 125.862C93 125.862 104.925 125.282 108.576 128.447C112.227 131.611 128.825 137.75 136.094 133.615C143.362 129.48 146.777 134.069 156.861 138.784C156.861 138.784 168.284 142.919 170.88 145.503C173.476 148.088 166.207 207.528 179.187 198.224C192.167 188.92 174.022 173.414 196.348 166.178C218.673 158.942 217.056 160.493 223.805 162.043C230.555 163.594 221.701 178.066 248.7 168.762C275.698 159.459 264.795 181.622 272.063 178.521C279.332 175.42 290.175 172.319 296.406 175.937C302.636 179.555 292.891 222 310.025 222C327.158 222 298.602 161.981 324.562 174.903C350.522 187.825 341.117 177.942 347.407 178.521C353.697 179.1 353.637 184.785 366.617 181.684C379.597 178.583 387.385 181.684 387.385 181.684M350.522 47.8151C366.617 55.0512 400.365 181.684 387.385 181.684M350.522 47.8151C350.522 47.8151 374.924 26.1066 387.385 55.0512C399.846 83.9959 448.131 215.798 429.959 204.426C418.018 186.853 408.513 183.767 387.385 181.684" stroke="black" stroke-width="5"/>
<path d="M147.395 150.471C150.497 156.722 154.633 156.202 156.701 158.285M105 139.532C105.517 145.262 110.05 146.19 114.306 147.346M357.299 193.186C360.401 199.437 364.537 198.916 366.605 201M210.469 177.559C213.571 183.81 217.707 183.289 219.776 185.373M277.68 185.373C280.782 191.624 284.918 191.103 286.986 193.186M386.769 117.654C389.871 123.905 394.007 123.384 396.075 125.468M371.259 64C374.361 70.251 378.497 69.73 380.565 71.8137M399.694 159.848C402.796 166.099 406.932 165.578 409 167.662" stroke="#F4913D" stroke-width="4" stroke-linecap="round"/>
<path d="M126 120.655C126.263 119.472 127.363 118.485 128.214 117.646C129.138 116.735 130.529 116.197 131.823 116.197H143.655C147.785 116.197 151.946 116.42 156.009 115.738C156.545 115.648 157.105 115.717 157.646 115.701C158.188 115.686 158.63 115.412 159.153 115.371C159.829 115.319 160.258 114.955 160.864 114.747C161.709 114.459 162.539 113.848 163.171 113.225M202.352 153.842C205.391 151.663 208.99 150.777 212.566 149.797C213.084 149.655 213.761 149.653 214.277 149.788C215.712 150.164 217.134 150.36 218.631 150.375C221.287 150.401 224.163 150.707 226.705 149.88C229.035 149.121 231.322 148.633 233.496 147.495C233.957 147.253 234.467 147.255 234.928 147.036C235.345 146.838 235.621 146.524 236.091 146.421C236.798 146.267 237.418 145.887 238.11 145.66C239.058 145.348 240.245 144.471 240.956 143.77C241.71 143.027 242.646 142.378 243.542 141.789M236.007 88.9534C237.581 88.9534 239.018 88.7282 240.565 88.458C242.35 88.1464 243.975 87.4073 245.784 87.1463C246.971 86.975 248.019 86.7198 249.17 86.4675C250.723 86.1272 251.969 85.9813 253.588 85.9813C258.533 85.9813 263.778 84.9381 268.695 85.908C270.341 86.2325 271.907 86.0455 273.551 86.5317C274.518 86.8177 275.697 86.6418 276.704 86.6418C279.77 86.6418 282.701 86.3543 285.737 86.018C287.937 85.7743 290.085 85.2492 292.257 84.9815C293.168 84.8693 293.983 84 294.946 84M331.28 151.035C336.365 151.035 341.391 151.644 346.368 152.677C351.874 153.82 357.245 155.056 362.889 154.998C364.17 154.985 365.384 154.285 366.61 153.916C368.076 153.474 369.591 152.776 370.963 152.099C373.701 150.749 376.297 149.066 379 147.733M304.825 120.655C305.99 120.381 307.028 119.601 308.136 119.132C309.856 118.405 311.588 118.033 313.271 117.187C317.389 115.118 321.52 113.241 326.015 112.078C328.443 111.45 330.905 110.945 333.382 110.574C334.947 110.339 336.149 109.757 337.726 109.757C342.001 109.757 346.264 109.923 350.535 109.923H354.349C355.073 109.923 355.755 109.899 356.47 109.794C357.679 109.617 358.791 108.879 359.996 108.776C360.543 108.729 361.298 108.427 361.754 108.106C362.394 107.656 363.106 107.715 363.698 107.097C364.793 105.954 366.546 105.31 367.447 103.979" stroke="#FFC30F" stroke-width="5" stroke-linecap="round"/>
<path d="M166.227 115.54C166.227 120.701 161.834 124.924 156.364 124.924C150.894 124.924 146.5 120.701 146.5 115.54C146.5 110.38 150.894 106.157 156.364 106.157C161.834 106.157 166.227 110.38 166.227 115.54ZM204.573 150.914C204.573 156.075 200.179 160.298 194.709 160.298C189.239 160.298 184.845 156.075 184.845 150.914C184.845 145.754 189.239 141.53 194.709 141.53C200.179 141.53 204.573 145.754 204.573 150.914ZM348.627 72.8838C348.627 78.0443 344.234 82.2677 338.764 82.2677C333.293 82.2677 328.9 78.0443 328.9 72.8838C328.9 67.7234 333.293 63.5 338.764 63.5C344.234 63.5 348.627 67.7234 348.627 72.8838ZM292.664 98.8939C292.664 104.054 288.27 108.278 282.8 108.278C277.33 108.278 272.936 104.054 272.936 98.8939C272.936 93.7335 277.33 89.5101 282.8 89.5101C288.27 89.5101 292.664 93.7335 292.664 98.8939ZM322.718 156.116C322.718 161.277 318.325 165.5 312.855 165.5C307.384 165.5 302.991 161.277 302.991 156.116C302.991 150.956 307.384 146.732 312.855 146.732C318.325 146.732 322.718 150.956 322.718 156.116ZM373.5 135.308C373.5 140.469 369.106 144.692 363.636 144.692C358.166 144.692 353.773 140.469 353.773 135.308C353.773 130.148 358.166 125.924 363.636 125.924C369.106 125.924 373.5 130.148 373.5 135.308ZM244.991 115.54C244.991 120.701 240.597 124.924 235.127 124.924C229.657 124.924 225.264 120.701 225.264 115.54C225.264 110.38 229.657 106.157 235.127 106.157C240.597 106.157 244.991 110.38 244.991 115.54Z" fill="#D04A31" stroke="#CA2000"/>
<path d="M179 108.291C184.685 108.315 187.361 105.944 191.991 101.046M235.121 154.86C240.806 154.885 243.482 152.514 248.112 147.616M295.399 126.918C301.084 126.943 303.76 124.572 308.39 119.674M289.163 77.2442C294.848 77.2686 297.524 74.8975 302.154 70M338.009 159C343.694 159.024 346.37 156.653 351 151.756M256.946 128.988C262.631 129.013 265.307 126.642 269.937 121.744" stroke="#47A800" stroke-width="3" stroke-linecap="round"/>
</svg>
