<svg width="130" height="8" viewBox="0 0 130 8" fill="none" xmlns="http://www.w3.org/2000/svg">
<path d="M4.99999 8L0.669861 0.5L9.33012 0.500001L4.99999 8Z" fill="white"/>
<path d="M13 8L8.66986 0.5L17.3301 0.500001L13 8Z" fill="white"/>
<path d="M21 8L16.6699 0.5L25.3301 0.500001L21 8Z" fill="white"/>
<path d="M29 8L24.6699 0.5L33.3301 0.500001L29 8Z" fill="white"/>
<path d="M37 8L32.6699 0.5L41.3301 0.500001L37 8Z" fill="white"/>
<path d="M45 8L40.6699 0.5L49.3301 0.500001L45 8Z" fill="white"/>
<path d="M53 8L48.6699 0.5L57.3301 0.500001L53 8Z" fill="white"/>
<path d="M61 8L56.6699 0.5L65.3301 0.500001L61 8Z" fill="white"/>
<path d="M69 8L64.6699 0.5L73.3301 0.500001L69 8Z" fill="white"/>
<path d="M77 8L72.6699 0.5L81.3301 0.500001L77 8Z" fill="white"/>
<path d="M85 8L80.6699 0.5L89.3301 0.500001L85 8Z" fill="white"/>
<path d="M93 8L88.6699 0.5L97.3301 0.500001L93 8Z" fill="white"/>
<path d="M101 8L96.6699 0.5L105.33 0.500001L101 8Z" fill="white"/>
<path d="M109 8L104.67 0.5L113.33 0.500001L109 8Z" fill="white"/>
<path d="M117 8L112.67 0.5L121.33 0.500001L117 8Z" fill="white"/>
<path d="M125 8L120.67 0.5L129.33 0.500001L125 8Z" fill="white"/>
</svg>
